<svg width="185" height="258" viewBox="0 0 185 258" fill="none" xmlns="http://www.w3.org/2000/svg">
<path d="M5.31377 196.892L28.1705 244.708L25.3359 246.063C24.379 246.52 23.2801 246.579 22.2804 246.226C21.2808 245.873 20.4621 245.137 20.0052 244.18L0.595768 203.578C0.138911 202.621 0.0801904 201.522 0.432973 200.523C0.78629 199.523 1.52228 198.704 2.47869 198.247L5.31377 196.892Z" fill="#71C8EA"/>
<path d="M30.1982 186.094L14.4238 192.615L23.2733 205.13L37.2576 200.863L30.1982 186.094Z" fill="#FFCCB3"/>
<path d="M20.1227 193.115C20.1227 193.115 26.2812 202.627 27.2104 207.942C28.1391 213.257 31.3211 240.142 30.465 242.566C29.8496 244.308 27.6145 245.055 26.1964 245.214C25.8852 245.247 25.5714 245.182 25.2987 245.029C25.026 244.876 24.8071 244.642 24.6737 244.359L3.92567 200.955C3.57876 200.23 3.5302 199.399 3.78959 198.639C4.0495 197.88 4.59656 197.252 5.3144 196.892C8.1847 195.45 12.5755 193.289 14.4243 192.616C17.2818 191.576 19.1679 191.582 20.1227 193.115Z" fill="#5661AE"/>
<path d="M131.79 215.87L110.354 255.44C109.849 256.373 108.994 257.066 107.978 257.368C106.962 257.67 105.867 257.556 104.935 257.051L102.172 255.554L127.416 208.954L130.179 210.452C131.111 210.956 131.805 211.811 132.107 212.827C132.409 213.843 132.295 214.938 131.79 215.87Z" fill="#71C8EA"/>
<path d="M103.108 196.914L118.532 204.224L109.062 216.275L95.3105 211.307L103.108 196.914Z" fill="#FFCCB3"/>
<path d="M112.817 204.434C112.817 204.434 106.186 213.623 104.989 218.884C103.793 224.145 99.2574 250.835 99.9897 253.299C100.516 255.07 102.711 255.93 104.119 256.159C104.428 256.208 104.744 256.16 105.025 256.02C105.305 255.881 105.535 255.658 105.683 255.382L128.598 213.082C128.981 212.377 129.072 211.549 128.851 210.777C128.63 210.005 128.115 209.35 127.417 208.954C124.623 207.369 120.346 204.989 118.534 204.224C115.733 203.04 113.849 202.951 112.817 204.434Z" fill="#5661AE"/>
<path d="M149.579 140.547C149.579 140.547 155.484 169.871 150.901 175.616L34.1332 205.516L24.1758 186.864L92.3627 155.923L106.019 137.205L149.579 140.547Z" fill="#D1E8F7"/>
<path d="M120.029 161.471L94.2661 170.088L82.2442 175.129L97.8777 189.194L83.9009 192.351L45.7773 161.471H120.029Z" fill="#5CA4E6"/>
<path d="M31.4902 184.418L32.2828 187.172L50.3863 201.302L67.3919 197.153C67.3919 197.153 34.5863 181.541 31.4902 184.418Z" fill="#5CA4E6"/>
<path d="M64.2655 138.836C64.2655 138.836 31.2474 137.045 14.8817 138.484C4.34358 139.41 0.544627 166.377 8.95431 171.283L99.2081 217.495L109.844 198.276L51.6218 158.866L93.2753 153.007L64.2655 138.836Z" fill="#D1E8F7"/>
<path d="M17.6562 173.578C27.4071 173.578 35.3119 165.674 35.3119 155.923C35.3119 146.171 27.4071 138.266 17.6562 138.266C7.9048 138.266 0 146.171 0 155.923C0 165.674 7.9048 173.578 17.6562 173.578Z" fill="#D1E8F7"/>
<path d="M147.967 175.859C157.718 175.859 165.622 167.954 165.622 158.203C165.622 148.452 157.718 140.547 147.967 140.547C138.215 140.547 130.311 148.452 130.311 158.203C130.311 167.954 138.215 175.859 147.967 175.859Z" fill="#D1E8F7"/>
<path d="M99.6016 74.8873C97.7416 65.7043 102.116 65.9413 103.572 64.481C103.572 64.481 109.033 59.9776 113.194 64.1757C117.599 68.6162 142.848 103.11 142.848 103.11L127.05 117.64L124.08 114.096L116.388 104.922L108.16 95.1171L107.138 94.0006L96.0391 81.429C96.0391 81.429 100.654 79.7217 99.6016 74.8873Z" fill="#5661AE"/>
<path d="M108.364 84.1086C114.722 81.9786 118.15 75.098 116.02 68.7399C113.891 62.3818 107.01 58.9537 100.652 61.0833C94.2936 63.2128 90.8656 70.0939 92.9951 76.452C95.1252 82.8101 102.006 86.2381 108.364 84.1086Z" fill="#5661AE"/>
<path d="M107.285 93.9517C106.966 92.0325 106.329 88.194 105.643 84.6955L101.998 67.7635C101.998 67.7635 111.788 82.2325 116.298 92.3105C119.638 99.8631 123.513 107.56 124.154 114.072L116.462 104.898L108.234 95.0922L107.285 93.9517Z" fill="#465393"/>
<path d="M158.629 64.2752C162.383 57.4282 160.579 56.2658 162.176 52.3697C163.749 48.5681 160.956 39.1449 163.63 40.4295C166.304 41.7147 167.132 45.1294 167.132 45.1294C168.961 41.894 170.645 35.941 175.023 35.2595C179.403 34.5779 179.79 35.956 182.272 37.9926C188.874 43.4861 180.455 51.7421 179.05 54.8862C178.146 56.8566 171.503 62.8646 170.767 64.1781L167.423 69.0279L158.629 64.2752Z" fill="#FFCCB3"/>
<path d="M171.527 45.5538L176.863 35.7031" stroke="#E56441" stroke-width="0.94666" stroke-linecap="round"/>
<path d="M175.023 47.1491L180.839 37.9751" stroke="#E56441" stroke-width="0.94666" stroke-linecap="round"/>
<path d="M179.178 48.913L182.501 43.3571" stroke="#E56441" stroke-width="0.94666" stroke-linecap="round"/>
<path d="M170.208 54.2256C170.18 50.8152 168.133 46.6875 168.133 46.6875L170.208 54.2256Z" fill="#E56441"/>
<path d="M170.208 54.2256C170.18 50.8152 168.133 46.6875 168.133 46.6875" stroke="#E56441" stroke-width="0.94666" stroke-linecap="round"/>
<path d="M126.914 102.835L159.04 60.0531C159.244 59.8017 159.535 59.6352 159.855 59.5856C160.175 59.5354 160.503 59.6059 160.774 59.7836L169.187 65.3465C169.586 65.6176 169.871 66.0275 169.986 66.4961C170.1 66.9652 170.036 67.4605 169.806 67.8848L143.971 115.529L126.914 102.835Z" fill="#5661AE"/>
<path d="M134.721 120.905C140.663 120.905 145.479 116.089 145.479 110.147C145.479 104.206 140.663 99.3894 134.721 99.3894C128.78 99.3894 123.963 104.206 123.963 110.147C123.963 116.089 128.78 120.905 134.721 120.905Z" fill="#5661AE"/>
<path d="M87.0161 55.0242C87.0161 55.0242 105.044 59.795 108.139 61.0332C111.234 62.2709 111.44 67.2227 111.646 70.7302C111.852 74.2372 111.16 153.007 111.16 153.007L71.2615 151.473L41.4238 134.006C41.4238 134.006 42.7207 71.5062 43.1338 68.6178C43.5464 65.7293 40.3041 63.2417 43.8186 61.7879L66.4106 55.8199L87.0161 55.0242Z" fill="#5661AE"/>
<path d="M56.9932 83.0851L57.3145 141.283L40.1621 122.166L48.4608 81.2742L56.9932 83.0851Z" fill="#465393"/>
<path d="M63.4683 56.7089C63.4683 56.7089 60.9161 61.8421 63.4683 65.3828C66.0205 68.9234 76.2379 72.3626 83.2183 72.2618C90.1981 72.1604 93.8968 65.5055 90.7324 56.188L79.1717 52.9398L66.4106 55.8197L63.4683 56.7089Z" fill="#465393"/>
<path d="M92.3631 12.4729C92.3631 12.4729 97.3896 23.3195 92.0285 25.56C86.6674 27.8006 87.2918 12.9991 92.3631 12.4729Z" fill="#93523E"/>
<path d="M86.6933 47.1811L88.1476 63.5789C88.1476 63.5789 89.5417 65.7772 84.1122 66.9316C80.6196 67.6745 71.2141 63.969 69.3898 62.8573C68.6138 62.4452 68.0059 61.7754 67.6707 60.9637C67.3356 60.1519 67.2934 59.2483 67.5528 58.4093C68.1073 56.402 70.4049 39.6857 70.4049 39.6857L86.6933 47.1811Z" fill="#FFCCB3"/>
<path d="M86.9737 50.3429L78.3105 46.0631L87.9686 61.5578L86.9737 50.3429Z" fill="#FF967C"/>
<path d="M89.4778 15.6121C89.4778 15.6121 94.5619 28.3625 96.4059 37.3075C98.2664 46.3314 95.2979 48.5853 91.3804 49.9126C88.2913 50.9592 83.3577 51.794 80.0012 50.7436C73.8817 48.8276 67.8945 43.2978 66.4625 42.1621C64.2455 40.4035 62.0562 32.4267 65.306 27.9136C68.5557 23.4011 81.3589 9.21931 89.4778 15.6121Z" fill="#FFCCB3"/>
<path d="M82.9311 33.2112C83.6073 32.9454 83.8261 31.893 83.42 30.8613C83.0138 29.8291 82.1369 29.2084 81.4607 29.4742C80.7845 29.74 80.5657 30.7925 80.9713 31.8247C81.3775 32.8563 82.2549 33.4776 82.9311 33.2112Z" fill="#080B09"/>
<path d="M92.2259 29.4874C92.9021 29.2216 93.1209 28.1692 92.7148 27.137C92.3092 26.1053 91.4317 25.484 90.7555 25.7504C90.0793 26.0162 89.8605 27.0686 90.2666 28.1003C90.6722 29.1325 91.5497 29.7532 92.2259 29.4874Z" fill="#080B09"/>
<path d="M88.8154 31.2482C88.8154 31.2482 87.9897 33.747 89.7254 33.5036C91.3751 33.2138 92.4943 34.0288 91.0533 35.703" fill="#E56441"/>
<path d="M88.8154 31.2482C88.8154 31.2482 87.9897 33.747 89.7254 33.5036C91.3751 33.2138 92.4943 34.0288 91.0533 35.703" stroke="#E56441" stroke-width="0.94666" stroke-linecap="round"/>
<path d="M91.1351 37.9126L91.1436 37.9105L91.1521 37.9078C91.1762 37.9009 91.2018 37.8998 91.2258 37.9057C91.2503 37.9115 91.2728 37.9238 91.2909 37.9414C91.3091 37.9585 91.3224 37.9809 91.3293 38.0049C91.3357 38.029 91.3363 38.0546 91.3299 38.0791L91.3245 38.0999L91.3224 38.1213C91.2162 39.2149 90.944 39.8644 90.6136 40.23C90.2945 40.5828 89.8942 40.7002 89.44 40.6655C88.9741 40.6303 88.4622 40.4339 87.9664 40.1643C87.4765 39.898 87.0212 39.5708 86.6695 39.2901C86.6455 39.2677 86.6279 39.2394 86.6183 39.2084C86.6076 39.1754 86.6065 39.1401 86.6151 39.107C86.6231 39.0734 86.6407 39.043 86.6647 39.0185C86.6892 38.9944 86.7197 38.9773 86.7533 38.9693L86.756 38.9683C88.0977 38.6288 90.1216 38.1517 91.1351 37.9126Z" fill="#E56441" stroke="#E56441"/>
<path d="M77.0425 28.8421L77.1696 29.0204C77.3323 29.2963 77.5976 29.497 77.9077 29.5781C78.2172 29.6592 78.5465 29.6149 78.8241 29.4538L83.5132 26.5648C83.7465 26.434 83.9215 26.2211 84.0048 25.9676C84.0875 25.714 84.0726 25.4381 83.9621 25.1953C83.9012 25.0437 83.8095 24.906 83.6915 24.7923C83.5741 24.6786 83.4332 24.5911 83.2795 24.5356C83.1258 24.4806 82.9614 24.4582 82.7986 24.471C82.6353 24.4838 82.4768 24.5308 82.3332 24.6093L77.5165 27.3205C77.3836 27.3872 77.2656 27.4801 77.169 27.5938C77.073 27.7069 77.0004 27.8388 76.9561 27.9807C76.9123 28.1227 76.8968 28.2721 76.9118 28.4205C76.9262 28.5683 76.971 28.7119 77.0425 28.8421Z" fill="#080B09"/>
<path d="M93.2442 21.4327L87.7406 21.943C87.5778 21.9601 87.4204 22.0113 87.2789 22.094C87.1375 22.1762 87.0153 22.2878 86.9203 22.4206C86.8253 22.5535 86.7596 22.7056 86.7276 22.8658C86.6956 23.0264 86.6977 23.1919 86.734 23.3514C86.7815 23.614 86.9256 23.8494 87.138 24.0106C87.351 24.1718 87.6162 24.2475 87.882 24.2225L93.3824 23.931C93.7016 23.906 93.9984 23.7549 94.207 23.5121C94.4157 23.2692 94.5198 22.9533 94.4963 22.6336L94.5001 22.4148C94.4846 22.2669 94.4392 22.1234 94.3671 21.9931C94.2951 21.8629 94.1974 21.7487 94.0805 21.6574C93.9631 21.5656 93.8286 21.4984 93.6851 21.46C93.5415 21.4215 93.3915 21.4119 93.2442 21.4327Z" fill="#080B09"/>
<path d="M83.1648 18.1558C83.1648 18.1558 80.4178 23.383 75.434 24.9334C70.4502 26.4833 73.1737 34.3491 73.1737 34.3491C73.1737 34.3491 69.7563 30.9499 65.8277 32.8633C61.8996 34.7772 64.8814 42.287 70.3087 42.3831L68.8325 50.8339C68.8325 50.8339 66.0839 47.4106 63.1933 45.5789C60.3022 43.7478 49.9172 36.6377 54.505 27.2742C54.505 27.2742 50.9158 14.1257 60.7596 7.30918C70.6033 0.492087 79.1235 3.06457 79.1235 3.06457C79.1235 3.06457 81.4702 -0.658072 86.9098 0.102467C92.3489 0.863005 93.6036 10.6716 91.8024 14.2191C90.0011 17.7667 87.0657 19.2745 83.1648 18.1558Z" fill="#93523E"/>
<path d="M42.1552 70.5629C49.0774 64.2491 51.1215 68.1233 53.1224 68.6223C53.1224 68.6223 59.7917 70.9936 58.3282 76.7203C56.7815 82.7811 40.1607 122.165 40.1607 122.165L19.5781 116.077L21.0928 111.708L25.0113 100.395L29.1967 88.2986L29.629 86.8485L34.712 70.8671C34.712 70.8671 38.5478 73.9487 42.1552 70.5629Z" fill="#5661AE"/>
<path d="M55.8647 81.4896C60.2257 76.3959 59.6311 68.7312 54.5374 64.3708C49.4436 60.0098 41.779 60.6044 37.4186 65.6981C33.0576 70.7919 33.6517 78.4565 38.7459 82.8169C43.8397 87.1779 51.5038 86.5833 55.8647 81.4896Z" fill="#5661AE"/>
<path d="M38.1239 112.492L76.3365 149.937C76.5591 150.173 76.6861 150.483 76.6936 150.807C76.7011 151.131 76.5884 151.446 76.3771 151.692L69.7617 159.304C69.441 159.665 68.9975 159.894 68.5171 159.946C68.0373 159.999 67.5548 159.87 67.1642 159.587L23.3086 127.743L38.1239 112.492Z" fill="#5661AE"/>
<path d="M29.8537 130.032C35.7955 130.032 40.6123 125.216 40.6123 119.274C40.6123 113.333 35.7955 108.516 29.8537 108.516C23.9125 108.516 19.0957 113.333 19.0957 119.274C19.0957 125.216 23.9125 130.032 29.8537 130.032Z" fill="#5661AE"/>
<path d="M92.0221 105.279L71.2837 162.734H29.5859C29.5859 160.979 30.283 159.297 31.5233 158.056C32.7642 156.816 34.4465 156.119 36.2008 156.119H66.3677L84.2753 105.279H92.0221Z" fill="white"/>
<path d="M92.0216 105.279H147.967L126.331 162.734H71.2832L92.0216 105.279Z" fill="url(#paint0_linear_637_4640)"/>
<defs>
<linearGradient id="paint0_linear_637_4640" x1="107.716" y1="105.142" x2="117.663" y2="227.584" gradientUnits="userSpaceOnUse">
<stop stop-color="white"/>
<stop offset="1" stop-color="#94B9FF"/>
</linearGradient>
</defs>
</svg>
