<svg width="65" height="65" viewBox="0 0 65 65" fill="none" xmlns="http://www.w3.org/2000/svg">
<path d="M46.0195 14.0193H18.0195C15.8104 14.0193 14.0195 15.8101 14.0195 18.0193V46.0193C14.0195 48.2284 15.8104 50.0193 18.0195 50.0193H46.0195C48.2287 50.0193 50.0195 48.2284 50.0195 46.0193V18.0193C50.0195 15.8101 48.2287 14.0193 46.0195 14.0193Z" fill="url(#paint0_linear_637_921)"/>
<path d="M46.0195 18.0193H18.0195V46.0193H46.0195V18.0193Z" fill="url(#paint1_linear_637_921)"/>
<path d="M46.0195 18.0193H18.0195V20.0193H46.0195V18.0193Z" fill="#FFD39F"/>
<path d="M38.0195 63.0193C39.1241 63.0193 40.0195 62.1239 40.0195 61.0193C40.0195 59.9147 39.1241 59.0193 38.0195 59.0193C36.915 59.0193 36.0195 59.9147 36.0195 61.0193C36.0195 62.1239 36.915 63.0193 38.0195 63.0193Z" fill="url(#paint2_linear_637_921)"/>
<path d="M49.0195 63.0193C50.1241 63.0193 51.0195 62.1239 51.0195 61.0193C51.0195 59.9147 50.1241 59.0193 49.0195 59.0193C47.915 59.0193 47.0195 59.9147 47.0195 61.0193C47.0195 62.1239 47.915 63.0193 49.0195 63.0193Z" fill="url(#paint3_linear_637_921)"/>
<path d="M26.0195 63.0193C27.1241 63.0193 28.0195 62.1239 28.0195 61.0193C28.0195 59.9147 27.1241 59.0193 26.0195 59.0193C24.915 59.0193 24.0195 59.9147 24.0195 61.0193C24.0195 62.1239 24.915 63.0193 26.0195 63.0193Z" fill="url(#paint4_linear_637_921)"/>
<path d="M15.0195 63.0193C16.1241 63.0193 17.0195 62.1239 17.0195 61.0193C17.0195 59.9147 16.1241 59.0193 15.0195 59.0193C13.915 59.0193 13.0195 59.9147 13.0195 61.0193C13.0195 62.1239 13.915 63.0193 15.0195 63.0193Z" fill="url(#paint5_linear_637_921)"/>
<path d="M26.0195 5.01929C27.1241 5.01929 28.0195 4.12386 28.0195 3.01929C28.0195 1.91472 27.1241 1.01929 26.0195 1.01929C24.915 1.01929 24.0195 1.91472 24.0195 3.01929C24.0195 4.12386 24.915 5.01929 26.0195 5.01929Z" fill="url(#paint6_linear_637_921)"/>
<path d="M15.0195 5.01929C16.1241 5.01929 17.0195 4.12386 17.0195 3.01929C17.0195 1.91472 16.1241 1.01929 15.0195 1.01929C13.915 1.01929 13.0195 1.91472 13.0195 3.01929C13.0195 4.12386 13.915 5.01929 15.0195 5.01929Z" fill="url(#paint7_linear_637_921)"/>
<path d="M38.0195 5.01929C39.1241 5.01929 40.0195 4.12386 40.0195 3.01929C40.0195 1.91472 39.1241 1.01929 38.0195 1.01929C36.915 1.01929 36.0195 1.91472 36.0195 3.01929C36.0195 4.12386 36.915 5.01929 38.0195 5.01929Z" fill="url(#paint8_linear_637_921)"/>
<path d="M49.0195 5.01929C50.1241 5.01929 51.0195 4.12386 51.0195 3.01929C51.0195 1.91472 50.1241 1.01929 49.0195 1.01929C47.915 1.01929 47.0195 1.91472 47.0195 3.01929C47.0195 4.12386 47.915 5.01929 49.0195 5.01929Z" fill="url(#paint9_linear_637_921)"/>
<path d="M3.01953 40.0193C4.1241 40.0193 5.01953 39.1239 5.01953 38.0193C5.01953 36.9147 4.1241 36.0193 3.01953 36.0193C1.91496 36.0193 1.01953 36.9147 1.01953 38.0193C1.01953 39.1239 1.91496 40.0193 3.01953 40.0193Z" fill="url(#paint10_linear_637_921)"/>
<path d="M3.01953 51.0193C4.1241 51.0193 5.01953 50.1239 5.01953 49.0193C5.01953 47.9147 4.1241 47.0193 3.01953 47.0193C1.91496 47.0193 1.01953 47.9147 1.01953 49.0193C1.01953 50.1239 1.91496 51.0193 3.01953 51.0193Z" fill="url(#paint11_linear_637_921)"/>
<path d="M3.01953 28.0193C4.1241 28.0193 5.01953 27.1239 5.01953 26.0193C5.01953 24.9147 4.1241 24.0193 3.01953 24.0193C1.91496 24.0193 1.01953 24.9147 1.01953 26.0193C1.01953 27.1239 1.91496 28.0193 3.01953 28.0193Z" fill="url(#paint12_linear_637_921)"/>
<path d="M3.01953 17.0193C4.1241 17.0193 5.01953 16.1239 5.01953 15.0193C5.01953 13.9147 4.1241 13.0193 3.01953 13.0193C1.91496 13.0193 1.01953 13.9147 1.01953 15.0193C1.01953 16.1239 1.91496 17.0193 3.01953 17.0193Z" fill="url(#paint13_linear_637_921)"/>
<path d="M61.0195 28.0193C62.1241 28.0193 63.0195 27.1239 63.0195 26.0193C63.0195 24.9147 62.1241 24.0193 61.0195 24.0193C59.915 24.0193 59.0195 24.9147 59.0195 26.0193C59.0195 27.1239 59.915 28.0193 61.0195 28.0193Z" fill="url(#paint14_linear_637_921)"/>
<path d="M61.0195 17.0193C62.1241 17.0193 63.0195 16.1239 63.0195 15.0193C63.0195 13.9147 62.1241 13.0193 61.0195 13.0193C59.915 13.0193 59.0195 13.9147 59.0195 15.0193C59.0195 16.1239 59.915 17.0193 61.0195 17.0193Z" fill="url(#paint15_linear_637_921)"/>
<path d="M61.0195 40.0193C62.1241 40.0193 63.0195 39.1239 63.0195 38.0193C63.0195 36.9147 62.1241 36.0193 61.0195 36.0193C59.915 36.0193 59.0195 36.9147 59.0195 38.0193C59.0195 39.1239 59.915 40.0193 61.0195 40.0193Z" fill="url(#paint16_linear_637_921)"/>
<path d="M61.0195 51.0193C62.1241 51.0193 63.0195 50.1239 63.0195 49.0193C63.0195 47.9147 62.1241 47.0193 61.0195 47.0193C59.915 47.0193 59.0195 47.9147 59.0195 49.0193C59.0195 50.1239 59.915 51.0193 61.0195 51.0193Z" fill="url(#paint17_linear_637_921)"/>
<path d="M39.7194 29.8793L41.7194 28.7493L39.7194 25.2893L37.7294 26.4193C36.7083 25.3844 35.4264 24.645 34.0194 24.2793V22.0193H30.0194V24.2793C28.6123 24.645 27.3304 25.3844 26.3094 26.4193L24.3594 25.2893L22.3594 28.7493L24.3594 29.8793C23.9592 31.2779 23.9592 32.7607 24.3594 34.1593L22.3594 35.2893L24.3594 38.7493L26.3094 37.6193C27.3304 38.6542 28.6123 39.3936 30.0194 39.7593V42.0193H34.0194V39.7593C35.4264 39.3936 36.7083 38.6542 37.7294 37.6193L39.6794 38.7493L41.6794 35.2893L39.6794 34.1593C40.0926 32.7644 40.1065 31.2816 39.7194 29.8793Z" fill="url(#paint18_linear_637_921)"/>
<path d="M32.0195 35.0193C33.6764 35.0193 35.0195 33.6761 35.0195 32.0193C35.0195 30.3624 33.6764 29.0193 32.0195 29.0193C30.3627 29.0193 29.0195 30.3624 29.0195 32.0193C29.0195 33.6761 30.3627 35.0193 32.0195 35.0193Z" fill="#FFD39F"/>
<path d="M46.0195 17.0193H18.0195C17.7543 17.0193 17.5 17.1246 17.3124 17.3122C17.1249 17.4997 17.0195 17.7541 17.0195 18.0193V46.0193C17.0195 46.2845 17.1249 46.5389 17.3124 46.7264C17.5 46.9139 17.7543 47.0193 18.0195 47.0193H46.0195C46.2847 47.0193 46.5391 46.9139 46.7266 46.7264C46.9142 46.5389 47.0195 46.2845 47.0195 46.0193V18.0193C47.0195 17.7541 46.9142 17.4997 46.7266 17.3122C46.5391 17.1246 46.2847 17.0193 46.0195 17.0193ZM45.0195 45.0193H19.0195V19.0193H45.0195V45.0193Z" fill="black"/>
<path d="M32.0195 36.0193C32.8107 36.0193 33.584 35.7847 34.2418 35.3452C34.8996 34.9056 35.4123 34.2809 35.715 33.55C36.0178 32.8191 36.097 32.0149 35.9427 31.2389C35.7883 30.463 35.4074 29.7503 34.848 29.1909C34.2885 28.6315 33.5758 28.2505 32.7999 28.0961C32.024 27.9418 31.2197 28.021 30.4888 28.3238C29.7579 28.6265 29.1332 29.1392 28.6937 29.797C28.2541 30.4548 28.0195 31.2282 28.0195 32.0193C28.0195 33.0802 28.441 34.0976 29.1911 34.8477C29.9413 35.5979 30.9587 36.0193 32.0195 36.0193ZM32.0195 30.0193C32.4151 30.0193 32.8018 30.1366 33.1307 30.3564C33.4596 30.5761 33.7159 30.8885 33.8673 31.2539C34.0187 31.6194 34.0583 32.0215 33.9811 32.4095C33.9039 32.7974 33.7135 33.1538 33.4337 33.4335C33.154 33.7132 32.7977 33.9037 32.4097 33.9809C32.0218 34.058 31.6196 34.0184 31.2542 33.867C30.8887 33.7157 30.5764 33.4593 30.3566 33.1304C30.1368 32.8015 30.0195 32.4149 30.0195 32.0193C30.0195 31.4889 30.2302 30.9801 30.6053 30.6051C30.9804 30.23 31.4891 30.0193 32.0195 30.0193Z" fill="black"/>
<path d="M57.0193 30.0193C57.4593 30.0193 57.5093 29.8993 59.3593 28.5193C59.916 28.8891 60.5804 29.0624 61.2469 29.0117C61.9133 28.961 62.5438 28.6892 63.0382 28.2394C63.5326 27.7895 63.8626 27.1875 63.9759 26.5287C64.0891 25.87 63.9792 25.1923 63.6634 24.6031C63.3476 24.014 62.8441 23.5472 62.2329 23.2768C61.6216 23.0064 60.9375 22.9479 60.2892 23.1106C59.6409 23.2732 59.0654 23.6478 58.6542 24.1747C58.243 24.7017 58.0195 25.3508 58.0193 26.0193C58.0193 27.2993 58.7593 26.4593 56.6893 28.0193H51.0193V24.0193C56.2893 24.0193 56.4593 24.1893 56.8693 23.5493L60.3693 17.9493C61.0592 18.1068 61.7826 18.0155 62.4116 17.6912C63.0407 17.367 63.5349 16.8309 63.8068 16.1776C64.0788 15.5243 64.1111 14.7958 63.898 14.121C63.6848 13.4462 63.24 12.8685 62.6421 12.4899C62.0441 12.1113 61.3317 11.9563 60.6305 12.0523C59.9294 12.1482 59.2847 12.4889 58.8105 13.0142C58.3363 13.5395 58.063 14.2155 58.039 14.9228C58.015 15.63 58.2418 16.323 58.6793 16.8793L55.4693 22.0193H51.0193V18.0193C51.0193 16.6932 50.4925 15.4214 49.5548 14.4837C48.6171 13.546 47.3453 13.0193 46.0193 13.0193H42.0193V9.01927H49.0193C49.2845 9.01927 49.5388 8.91391 49.7264 8.72637C49.9139 8.53884 50.0193 8.28448 50.0193 8.01927V5.83927C50.6865 5.60337 51.2488 5.1392 51.6069 4.52879C51.965 3.91837 52.0957 3.20103 51.9761 2.50353C51.8564 1.80604 51.494 1.1733 50.9529 0.71716C50.4119 0.261018 49.727 0.0108382 49.0193 0.0108382C48.3116 0.0108382 47.6267 0.261018 47.0856 0.71716C46.5445 1.1733 46.1821 1.80604 46.0625 2.50353C45.9428 3.20103 46.0736 3.91837 46.4316 4.52879C46.7897 5.1392 47.3521 5.60337 48.0193 5.83927V7.01927H41.0193C40.754 7.01927 40.4997 7.12462 40.3122 7.31216C40.1246 7.49969 40.0193 7.75405 40.0193 8.01927V13.0193H36.0193V7.34927L37.1293 5.86927C37.806 6.07588 38.534 6.03662 39.1846 5.75844C39.8353 5.48026 40.3666 4.98106 40.6848 4.34905C41.003 3.71703 41.0876 2.99289 40.9235 2.30457C40.7595 1.61625 40.3574 1.00806 39.7884 0.587475C39.2194 0.166887 38.52 -0.0390278 37.8139 0.00611441C37.1077 0.0512566 36.4402 0.34455 35.9294 0.834171C35.4185 1.32379 35.0972 1.97822 35.0222 2.68182C34.9471 3.38543 35.1232 4.09291 35.5193 4.67927C33.6193 7.21926 34.0193 5.44927 34.0193 13.0193H30.0193V7.01927C30.0193 6.57927 29.8993 6.52927 28.5193 4.67927C28.8891 4.1225 29.0624 3.45817 29.0117 2.79168C28.961 2.12519 28.6892 1.49472 28.2394 1.00032C27.7895 0.505919 27.1875 0.175906 26.5287 0.0626463C25.87 -0.0506131 25.1923 0.0593688 24.6031 0.37514C24.014 0.690911 23.5472 1.19438 23.2768 1.80567C23.0064 2.41695 22.9479 3.10103 23.1106 3.74935C23.2732 4.39767 23.6478 4.9731 24.1747 5.38432C24.7017 5.79555 25.3508 6.01902 26.0193 6.01927C27.2993 6.01927 26.4593 5.27927 28.0193 7.34927V13.0193H24.0193C24.0193 7.74927 24.1893 7.57927 23.5493 7.16927L17.9493 3.66927C18.1068 2.97936 18.0155 2.25595 17.6912 1.62691C17.367 0.99786 16.8309 0.503674 16.1776 0.231689C15.5243 -0.0402958 14.7958 -0.0725679 14.121 0.140577C13.4462 0.353721 12.8685 0.798559 12.4899 1.39647C12.1113 1.99438 11.9563 2.70687 12.0523 3.40801C12.1482 4.10915 12.4889 4.7538 13.0142 5.22803C13.5395 5.70226 14.2155 5.97553 14.9228 5.99954C15.63 6.02356 16.323 5.79677 16.8793 5.35927L22.0193 8.56927V13.0193H18.0193C16.6932 13.0193 15.4214 13.546 14.4837 14.4837C13.546 15.4214 13.0193 16.6932 13.0193 18.0193V22.0193H9.01927V15.0193C9.01927 14.754 8.91391 14.4997 8.72637 14.3122C8.53884 14.1246 8.28448 14.0193 8.01927 14.0193H5.83927C5.60337 13.3521 5.1392 12.7897 4.52879 12.4316C3.91837 12.0736 3.20103 11.9428 2.50353 12.0625C1.80604 12.1821 1.1733 12.5445 0.71716 13.0856C0.261018 13.6267 0.0108382 14.3116 0.0108382 15.0193C0.0108382 15.727 0.261018 16.4119 0.71716 16.9529C1.1733 17.494 1.80604 17.8564 2.50353 17.9761C3.20103 18.0957 3.91837 17.965 4.52879 17.6069C5.1392 17.2488 5.60337 16.6865 5.83927 16.0193H7.01927V23.0193C7.01927 23.2845 7.12462 23.5388 7.31216 23.7264C7.49969 23.9139 7.75405 24.0193 8.01927 24.0193H13.0193V28.0193H7.34927L5.86927 26.9093C6.07588 26.2325 6.03662 25.5045 5.75844 24.8539C5.48026 24.2033 4.98106 23.6719 4.34905 23.3537C3.71703 23.0355 2.99289 22.951 2.30457 23.115C1.61625 23.279 1.00806 23.6811 0.587475 24.2501C0.166887 24.8191 -0.0390278 25.5185 0.00611441 26.2247C0.0512566 26.9308 0.34455 27.5983 0.834171 28.1091C1.32379 28.62 1.97822 28.9413 2.68182 29.0164C3.38543 29.0914 4.09291 28.9153 4.67927 28.5193C7.21926 30.4193 5.44927 30.0193 13.0193 30.0193V34.0193H7.01927C6.57927 34.0193 6.52927 34.1393 4.67927 35.5193C4.1225 35.1494 3.45817 34.9761 2.79168 35.0268C2.12519 35.0775 1.49472 35.3493 1.00032 35.7992C0.505919 36.249 0.175906 36.8511 0.0626463 37.5098C-0.0506131 38.1686 0.0593688 38.8463 0.37514 39.4354C0.690911 40.0245 1.19438 40.4913 1.80567 40.7617C2.41695 41.0321 3.10103 41.0906 3.74935 40.928C4.39767 40.7653 4.9731 40.3908 5.38432 39.8638C5.79555 39.3369 6.01902 38.6877 6.01927 38.0193C6.01927 36.7393 5.27927 37.5793 7.34927 36.0193H13.0193V40.0193C7.74927 40.0193 7.57927 39.8493 7.16927 40.4893L3.66927 46.0893C2.97936 45.9317 2.25595 46.0231 1.62691 46.3473C0.99786 46.6715 0.503674 47.2076 0.231689 47.8609C-0.0402958 48.5143 -0.0725679 49.2427 0.140577 49.9175C0.353721 50.5923 0.798559 51.1701 1.39647 51.5486C1.99438 51.9272 2.70687 52.0822 3.40801 51.9862C4.10915 51.8903 4.7538 51.5496 5.22803 51.0243C5.70226 50.499 5.97553 49.823 5.99954 49.1158C6.02356 48.4085 5.79677 47.7155 5.35927 47.1593L8.56927 42.0193H13.0193V46.0193C13.0193 47.3453 13.546 48.6171 14.4837 49.5548C15.4214 50.4925 16.6932 51.0193 18.0193 51.0193H22.0193V55.0193H15.0193C14.754 55.0193 14.4997 55.1246 14.3122 55.3122C14.1246 55.4997 14.0193 55.754 14.0193 56.0193V58.1993C13.3521 58.4352 12.7897 58.8993 12.4316 59.5097C12.0736 60.1202 11.9428 60.8375 12.0625 61.535C12.1821 62.2325 12.5445 62.8652 13.0856 63.3214C13.6267 63.7775 14.3116 64.0277 15.0193 64.0277C15.727 64.0277 16.4119 63.7775 16.9529 63.3214C17.494 62.8652 17.8564 62.2325 17.9761 61.535C18.0957 60.8375 17.965 60.1202 17.6069 59.5097C17.2488 58.8993 16.6865 58.4352 16.0193 58.1993V57.0193H23.0193C23.2845 57.0193 23.5388 56.9139 23.7264 56.7264C23.9139 56.5388 24.0193 56.2845 24.0193 56.0193V51.0193H28.0193V56.6893L26.9093 58.1693C26.2325 57.9627 25.5045 58.0019 24.8539 58.2801C24.2033 58.5583 23.6719 59.0575 23.3537 59.6895C23.0355 60.3215 22.951 61.0456 23.115 61.734C23.279 62.4223 23.6811 63.0305 24.2501 63.4511C24.8191 63.8716 25.5185 64.0776 26.2247 64.0324C26.9308 63.9873 27.5983 63.694 28.1091 63.2044C28.62 62.7147 28.9413 62.0603 29.0164 61.3567C29.0914 60.6531 28.9153 59.9456 28.5193 59.3593C30.4193 56.8193 30.0193 58.5893 30.0193 51.0193H34.0193V57.0193C34.0193 57.4593 34.1393 57.5093 35.5193 59.3593C35.1494 59.916 34.9761 60.5804 35.0268 61.2469C35.0775 61.9133 35.3493 62.5438 35.7992 63.0382C36.249 63.5326 36.8511 63.8626 37.5098 63.9759C38.1686 64.0891 38.8463 63.9792 39.4354 63.6634C40.0245 63.3476 40.4913 62.8441 40.7617 62.2329C41.0321 61.6216 41.0906 60.9375 40.928 60.2892C40.7653 59.6409 40.3908 59.0654 39.8638 58.6542C39.3369 58.243 38.6877 58.0195 38.0193 58.0193C36.7393 58.0193 37.5793 58.7593 36.0193 56.6893V51.0193H40.0193C40.0193 56.2893 39.8493 56.4593 40.4893 56.8693L46.0893 60.3693C45.9317 61.0592 46.0231 61.7826 46.3473 62.4116C46.6715 63.0407 47.2076 63.5349 47.8609 63.8068C48.5143 64.0788 49.2427 64.1111 49.9175 63.898C50.5923 63.6848 51.1701 63.24 51.5486 62.6421C51.9272 62.0441 52.0822 61.3317 51.9862 60.6305C51.8903 59.9294 51.5496 59.2847 51.0243 58.8105C50.499 58.3363 49.823 58.063 49.1158 58.039C48.4085 58.015 47.7155 58.2418 47.1593 58.6793L42.0193 55.4693V51.0193H46.0193C47.3453 51.0193 48.6171 50.4925 49.5548 49.5548C50.4925 48.6171 51.0193 47.3453 51.0193 46.0193V42.0193H55.0193V49.0193C55.0193 49.2845 55.1246 49.5388 55.3122 49.7264C55.4997 49.9139 55.754 50.0193 56.0193 50.0193H58.1993C58.4352 50.6865 58.8993 51.2488 59.5097 51.6069C60.1202 51.965 60.8375 52.0957 61.535 51.9761C62.2325 51.8564 62.8652 51.494 63.3214 50.9529C63.7775 50.4119 64.0277 49.727 64.0277 49.0193C64.0277 48.3116 63.7775 47.6267 63.3214 47.0856C62.8652 46.5445 62.2325 46.1821 61.535 46.0625C60.8375 45.9428 60.1202 46.0736 59.5097 46.4316C58.8993 46.7897 58.4352 47.3521 58.1993 48.0193H57.0193V41.0193C57.0193 40.754 56.9139 40.4997 56.7264 40.3122C56.5388 40.1246 56.2845 40.0193 56.0193 40.0193H51.0193V36.0193H56.6893L58.1693 37.1293C57.9627 37.806 58.0019 38.534 58.2801 39.1846C58.5583 39.8353 59.0575 40.3666 59.6895 40.6848C60.3215 41.003 61.0456 41.0876 61.734 40.9235C62.4223 40.7595 63.0305 40.3574 63.4511 39.7884C63.8716 39.2194 64.0776 38.52 64.0324 37.8139C63.9873 37.1077 63.694 36.4402 63.2044 35.9294C62.7147 35.4185 62.0603 35.0972 61.3567 35.0222C60.6531 34.9471 59.9456 35.1232 59.3593 35.5193C56.8193 33.6193 58.5893 34.0193 51.0193 34.0193V30.0193H57.0193ZM61.0193 25.0193C61.2845 25.0193 61.5388 25.1246 61.7264 25.3122C61.9139 25.4997 62.0193 25.754 62.0193 26.0193C62.0193 26.2845 61.9139 26.5388 61.7264 26.7264C61.5388 26.9139 61.2845 27.0193 61.0193 27.0193C60.754 27.0193 60.4997 26.9139 60.3122 26.7264C60.1246 26.5388 60.0193 26.2845 60.0193 26.0193C60.0193 25.754 60.1246 25.4997 60.3122 25.3122C60.4997 25.1246 60.754 25.0193 61.0193 25.0193ZM61.0193 14.0193C61.2845 14.0193 61.5388 14.1246 61.7264 14.3122C61.9139 14.4997 62.0193 14.754 62.0193 15.0193C62.0193 15.2845 61.9139 15.5388 61.7264 15.7264C61.5388 15.9139 61.2845 16.0193 61.0193 16.0193C60.754 16.0193 60.4997 15.9139 60.3122 15.7264C60.1246 15.5388 60.0193 15.2845 60.0193 15.0193C60.0193 14.754 60.1246 14.4997 60.3122 14.3122C60.4997 14.1246 60.754 14.0193 61.0193 14.0193ZM49.0193 2.01927C49.2845 2.01927 49.5388 2.12462 49.7264 2.31216C49.9139 2.49969 50.0193 2.75405 50.0193 3.01927C50.0193 3.28448 49.9139 3.53884 49.7264 3.72637C49.5388 3.91391 49.2845 4.01927 49.0193 4.01927C48.754 4.01927 48.4997 3.91391 48.3122 3.72637C48.1246 3.53884 48.0193 3.28448 48.0193 3.01927C48.0193 2.75405 48.1246 2.49969 48.3122 2.31216C48.4997 2.12462 48.754 2.01927 49.0193 2.01927ZM38.0193 2.01927C38.2845 2.01927 38.5388 2.12462 38.7264 2.31216C38.9139 2.49969 39.0193 2.75405 39.0193 3.01927C39.0193 3.28448 38.9139 3.53884 38.7264 3.72637C38.5388 3.91391 38.2845 4.01927 38.0193 4.01927C37.754 4.01927 37.4997 3.91391 37.3122 3.72637C37.1246 3.53884 37.0193 3.28448 37.0193 3.01927C37.0193 2.75405 37.1246 2.49969 37.3122 2.31216C37.4997 2.12462 37.754 2.01927 38.0193 2.01927ZM25.0193 3.01927C25.0193 2.75405 25.1246 2.49969 25.3122 2.31216C25.4997 2.12462 25.754 2.01927 26.0193 2.01927C26.2845 2.01927 26.5388 2.12462 26.7264 2.31216C26.9139 2.49969 27.0193 2.75405 27.0193 3.01927C27.0193 3.28448 26.9139 3.53884 26.7264 3.72637C26.5388 3.91391 26.2845 4.01927 26.0193 4.01927C25.754 4.01927 25.4997 3.91391 25.3122 3.72637C25.1246 3.53884 25.0193 3.28448 25.0193 3.01927ZM15.0193 4.01927C14.754 4.01927 14.4997 3.91391 14.3122 3.72637C14.1246 3.53884 14.0193 3.28448 14.0193 3.01927C14.0193 2.75405 14.1246 2.49969 14.3122 2.31216C14.4997 2.12462 14.754 2.01927 15.0193 2.01927C15.2845 2.01927 15.5388 2.12462 15.7264 2.31216C15.9139 2.49969 16.0193 2.75405 16.0193 3.01927C16.0193 3.28448 15.9139 3.53884 15.7264 3.72637C15.5388 3.91391 15.2845 4.01927 15.0193 4.01927ZM3.01927 16.0193C2.75405 16.0193 2.49969 15.9139 2.31216 15.7264C2.12462 15.5388 2.01927 15.2845 2.01927 15.0193C2.01927 14.754 2.12462 14.4997 2.31216 14.3122C2.49969 14.1246 2.75405 14.0193 3.01927 14.0193C3.28448 14.0193 3.53884 14.1246 3.72637 14.3122C3.91391 14.4997 4.01927 14.754 4.01927 15.0193C4.01927 15.2845 3.91391 15.5388 3.72637 15.7264C3.53884 15.9139 3.28448 16.0193 3.01927 16.0193ZM2.01927 26.0193C2.01927 25.754 2.12462 25.4997 2.31216 25.3122C2.49969 25.1246 2.75405 25.0193 3.01927 25.0193C3.28448 25.0193 3.53884 25.1246 3.72637 25.3122C3.91391 25.4997 4.01927 25.754 4.01927 26.0193C4.01927 26.2845 3.91391 26.5388 3.72637 26.7264C3.53884 26.9139 3.28448 27.0193 3.01927 27.0193C2.75405 27.0193 2.49969 26.9139 2.31216 26.7264C2.12462 26.5388 2.01927 26.2845 2.01927 26.0193ZM3.01927 39.0193C2.75405 39.0193 2.49969 38.9139 2.31216 38.7264C2.12462 38.5388 2.01927 38.2845 2.01927 38.0193C2.01927 37.754 2.12462 37.4997 2.31216 37.3122C2.49969 37.1246 2.75405 37.0193 3.01927 37.0193C3.28448 37.0193 3.53884 37.1246 3.72637 37.3122C3.91391 37.4997 4.01927 37.754 4.01927 38.0193C4.01927 38.2845 3.91391 38.5388 3.72637 38.7264C3.53884 38.9139 3.28448 39.0193 3.01927 39.0193ZM3.01927 50.0193C2.75405 50.0193 2.49969 49.9139 2.31216 49.7264C2.12462 49.5388 2.01927 49.2845 2.01927 49.0193C2.01927 48.754 2.12462 48.4997 2.31216 48.3122C2.49969 48.1246 2.75405 48.0193 3.01927 48.0193C3.28448 48.0193 3.53884 48.1246 3.72637 48.3122C3.91391 48.4997 4.01927 48.754 4.01927 49.0193C4.01927 49.2845 3.91391 49.5388 3.72637 49.7264C3.53884 49.9139 3.28448 50.0193 3.01927 50.0193ZM15.0193 62.0193C14.754 62.0193 14.4997 61.9139 14.3122 61.7264C14.1246 61.5388 14.0193 61.2845 14.0193 61.0193C14.0193 60.754 14.1246 60.4997 14.3122 60.3122C14.4997 60.1246 14.754 60.0193 15.0193 60.0193C15.2845 60.0193 15.5388 60.1246 15.7264 60.3122C15.9139 60.4997 16.0193 60.754 16.0193 61.0193C16.0193 61.2845 15.9139 61.5388 15.7264 61.7264C15.5388 61.9139 15.2845 62.0193 15.0193 62.0193ZM26.0193 62.0193C25.754 62.0193 25.4997 61.9139 25.3122 61.7264C25.1246 61.5388 25.0193 61.2845 25.0193 61.0193C25.0193 60.754 25.1246 60.4997 25.3122 60.3122C25.4997 60.1246 25.754 60.0193 26.0193 60.0193C26.2845 60.0193 26.5388 60.1246 26.7264 60.3122C26.9139 60.4997 27.0193 60.754 27.0193 61.0193C27.0193 61.2845 26.9139 61.5388 26.7264 61.7264C26.5388 61.9139 26.2845 62.0193 26.0193 62.0193ZM39.0193 61.0193C39.0193 61.2845 38.9139 61.5388 38.7264 61.7264C38.5388 61.9139 38.2845 62.0193 38.0193 62.0193C37.754 62.0193 37.4997 61.9139 37.3122 61.7264C37.1246 61.5388 37.0193 61.2845 37.0193 61.0193C37.0193 60.754 37.1246 60.4997 37.3122 60.3122C37.4997 60.1246 37.754 60.0193 38.0193 60.0193C38.2845 60.0193 38.5388 60.1246 38.7264 60.3122C38.9139 60.4997 39.0193 60.754 39.0193 61.0193ZM49.0193 60.0193C49.2845 60.0193 49.5388 60.1246 49.7264 60.3122C49.9139 60.4997 50.0193 60.754 50.0193 61.0193C50.0193 61.2845 49.9139 61.5388 49.7264 61.7264C49.5388 61.9139 49.2845 62.0193 49.0193 62.0193C48.754 62.0193 48.4997 61.9139 48.3122 61.7264C48.1246 61.5388 48.0193 61.2845 48.0193 61.0193C48.0193 60.754 48.1246 60.4997 48.3122 60.3122C48.4997 60.1246 48.754 60.0193 49.0193 60.0193ZM61.0193 48.0193C61.2845 48.0193 61.5388 48.1246 61.7264 48.3122C61.9139 48.4997 62.0193 48.754 62.0193 49.0193C62.0193 49.2845 61.9139 49.5388 61.7264 49.7264C61.5388 49.9139 61.2845 50.0193 61.0193 50.0193C60.754 50.0193 60.4997 49.9139 60.3122 49.7264C60.1246 49.5388 60.0193 49.2845 60.0193 49.0193C60.0193 48.754 60.1246 48.4997 60.3122 48.3122C60.4997 48.1246 60.754 48.0193 61.0193 48.0193ZM62.0193 38.0193C62.0193 38.2845 61.9139 38.5388 61.7264 38.7264C61.5388 38.9139 61.2845 39.0193 61.0193 39.0193C60.754 39.0193 60.4997 38.9139 60.3122 38.7264C60.1246 38.5388 60.0193 38.2845 60.0193 38.0193C60.0193 37.754 60.1246 37.4997 60.3122 37.3122C60.4997 37.1246 60.754 37.0193 61.0193 37.0193C61.2845 37.0193 61.5388 37.1246 61.7264 37.3122C61.9139 37.4997 62.0193 37.754 62.0193 38.0193ZM49.0193 46.0193C49.0193 46.8149 48.7032 47.578 48.1406 48.1406C47.578 48.7032 46.8149 49.0193 46.0193 49.0193H18.0193C17.2236 49.0193 16.4606 48.7032 15.8979 48.1406C15.3353 47.578 15.0193 46.8149 15.0193 46.0193V18.0193C15.0193 17.2236 15.3353 16.4606 15.8979 15.8979C16.4606 15.3353 17.2236 15.0193 18.0193 15.0193H46.0193C46.8149 15.0193 47.578 15.3353 48.1406 15.8979C48.7032 16.4606 49.0193 17.2236 49.0193 18.0193V46.0193Z" fill="black"/>
<path d="M23.4894 39.2493C23.5547 39.3639 23.6421 39.4644 23.7464 39.5451C23.8508 39.6258 23.97 39.685 24.0974 39.7194C24.2247 39.7538 24.3576 39.7627 24.4884 39.7455C24.6192 39.7283 24.7452 39.6854 24.8594 39.6193L26.1694 38.8593C27.0133 39.5725 27.9787 40.128 29.0194 40.4993V42.0193C29.0194 42.2845 29.1247 42.5389 29.3123 42.7264C29.4998 42.9139 29.7542 43.0193 30.0194 43.0193H34.0194C34.2846 43.0193 34.5389 42.9139 34.7265 42.7264C34.914 42.5389 35.0194 42.2845 35.0194 42.0193V40.4993C36.0585 40.1312 37.0211 39.5753 37.8594 38.8593L39.1794 39.6193C39.2935 39.6854 39.4196 39.7283 39.5504 39.7455C39.6812 39.7627 39.814 39.7538 39.9414 39.7194C40.0687 39.685 40.188 39.6258 40.2923 39.5451C40.3967 39.4644 40.484 39.3639 40.5494 39.2493L42.5494 35.7893C42.6155 35.6752 42.6584 35.5491 42.6756 35.4183C42.6927 35.2875 42.6839 35.1546 42.6495 35.0273C42.6151 34.8999 42.5559 34.7807 42.4752 34.6763C42.3945 34.572 42.294 34.4846 42.1794 34.4193L40.8594 33.6593C41.0696 32.5761 41.0696 31.4625 40.8594 30.3793L42.1794 29.6193C42.294 29.554 42.3945 29.4666 42.4752 29.3623C42.5559 29.2579 42.6151 29.1386 42.6495 29.0113C42.6839 28.884 42.6927 28.7511 42.6756 28.6203C42.6584 28.4895 42.6155 28.3634 42.5494 28.2493L40.5494 24.7893C40.484 24.6747 40.3967 24.5742 40.2923 24.4935C40.188 24.4128 40.0687 24.3536 39.9414 24.3192C39.814 24.2848 39.6812 24.2759 39.5504 24.2931C39.4196 24.3103 39.2935 24.3532 39.1794 24.4193L37.8594 25.1793C37.0211 24.4633 36.0585 23.9074 35.0194 23.5393V22.0193C35.0194 21.7541 34.914 21.4997 34.7265 21.3122C34.5389 21.1246 34.2846 21.0193 34.0194 21.0193H30.0194C29.7542 21.0193 29.4998 21.1246 29.3123 21.3122C29.1247 21.4997 29.0194 21.7541 29.0194 22.0193V23.5393C27.9787 23.9106 27.0133 24.4661 26.1694 25.1793L24.8594 24.4193C24.7452 24.3532 24.6192 24.3103 24.4884 24.2931C24.3576 24.2759 24.2247 24.2848 24.0974 24.3192C23.97 24.3536 23.8508 24.4128 23.7464 24.4935C23.6421 24.5742 23.5547 24.6747 23.4894 24.7893C20.7794 29.4793 20.6294 28.9093 23.1794 30.3793C22.9692 31.4625 22.9692 32.5761 23.1794 33.6593C20.6094 35.1393 20.7994 34.5793 23.4894 39.2493ZM25.2794 33.8893C24.9293 32.6672 24.9293 31.3714 25.2794 30.1493C25.5194 29.2893 24.8194 29.0193 23.7294 28.3893L24.7294 26.6493L25.8094 27.2793C27.0494 27.9893 27.1694 26.0493 30.2694 25.2793C31.1294 25.0593 31.0194 24.3293 31.0194 23.0493H33.0194V24.3093C33.0194 25.7393 34.7794 24.8693 37.0194 27.1493C37.6494 27.7893 38.2494 27.2993 39.3194 26.6793L40.3194 28.4193L39.2194 29.0193C38.2194 29.5693 39.0194 30.3193 39.0194 32.0193C39.0194 33.7193 38.2694 34.4693 39.2194 35.0193L40.3094 35.6493L39.3094 37.3893C38.3094 36.7893 37.6594 36.2593 37.0094 36.9193C34.7794 39.1993 33.0094 38.3293 33.0094 39.7593V41.0193H31.0194V39.7593C31.0266 39.5322 30.9562 39.3094 30.8199 39.1277C30.6836 38.9459 30.4894 38.816 30.2694 38.7593C27.1594 37.9593 27.0494 36.0093 25.8094 36.7593L24.7294 37.3893L23.7294 35.6493C24.7694 35.0193 25.5294 34.7793 25.2794 33.8893Z" fill="black"/>
<defs>
<linearGradient id="paint0_linear_637_921" x1="32.0195" y1="50.0193" x2="32.0195" y2="14.0193" gradientUnits="userSpaceOnUse">
<stop stop-color="#7AA8D7"/>
<stop offset="1" stop-color="#C3D2E7"/>
</linearGradient>
<linearGradient id="paint1_linear_637_921" x1="32.0195" y1="46.0193" x2="32.0195" y2="18.0193" gradientUnits="userSpaceOnUse">
<stop stop-color="#FBCC88"/>
<stop offset="1" stop-color="#FFE5C3"/>
</linearGradient>
<linearGradient id="paint2_linear_637_921" x1="38.0195" y1="63.0193" x2="38.0195" y2="59.0193" gradientUnits="userSpaceOnUse">
<stop stop-color="#E9A254"/>
<stop offset="1" stop-color="#F4BB79"/>
</linearGradient>
<linearGradient id="paint3_linear_637_921" x1="49.0195" y1="0.0192871" x2="49.0195" y2="0.0192871" gradientUnits="userSpaceOnUse">
<stop stop-color="#E9A254"/>
<stop offset="1" stop-color="#F4BB79"/>
</linearGradient>
<linearGradient id="paint4_linear_637_921" x1="26.0195" y1="0.0192871" x2="26.0195" y2="0.0192871" gradientUnits="userSpaceOnUse">
<stop stop-color="#E9A254"/>
<stop offset="1" stop-color="#F4BB79"/>
</linearGradient>
<linearGradient id="paint5_linear_637_921" x1="15.0195" y1="0.0192871" x2="15.0195" y2="0.0192871" gradientUnits="userSpaceOnUse">
<stop stop-color="#E9A254"/>
<stop offset="1" stop-color="#F4BB79"/>
</linearGradient>
<linearGradient id="paint6_linear_637_921" x1="26.0195" y1="5.01929" x2="26.0195" y2="1.01929" gradientUnits="userSpaceOnUse">
<stop stop-color="#E9A254"/>
<stop offset="1" stop-color="#F4BB79"/>
</linearGradient>
<linearGradient id="paint7_linear_637_921" x1="15.0195" y1="5.01929" x2="15.0195" y2="1.01929" gradientUnits="userSpaceOnUse">
<stop stop-color="#E9A254"/>
<stop offset="1" stop-color="#F4BB79"/>
</linearGradient>
<linearGradient id="paint8_linear_637_921" x1="0.0195304" y1="5.01929" x2="1.01953" y2="1.01929" gradientUnits="userSpaceOnUse">
<stop stop-color="#E9A254"/>
<stop offset="1" stop-color="#F4BB79"/>
</linearGradient>
<linearGradient id="paint9_linear_637_921" x1="49.0195" y1="5.01929" x2="49.0195" y2="1.01929" gradientUnits="userSpaceOnUse">
<stop stop-color="#E9A254"/>
<stop offset="1" stop-color="#F4BB79"/>
</linearGradient>
<linearGradient id="paint10_linear_637_921" x1="3.01953" y1="40.0193" x2="3.01953" y2="36.0193" gradientUnits="userSpaceOnUse">
<stop stop-color="#E9A254"/>
<stop offset="1" stop-color="#F4BB79"/>
</linearGradient>
<linearGradient id="paint11_linear_637_921" x1="3.01953" y1="51.0193" x2="3.01953" y2="47.0193" gradientUnits="userSpaceOnUse">
<stop stop-color="#E9A254"/>
<stop offset="1" stop-color="#F4BB79"/>
</linearGradient>
<linearGradient id="paint12_linear_637_921" x1="3.01953" y1="28.0193" x2="3.01953" y2="24.0193" gradientUnits="userSpaceOnUse">
<stop stop-color="#E9A254"/>
<stop offset="1" stop-color="#F4BB79"/>
</linearGradient>
<linearGradient id="paint13_linear_637_921" x1="3.01953" y1="17.0193" x2="3.01953" y2="13.0193" gradientUnits="userSpaceOnUse">
<stop stop-color="#E9A254"/>
<stop offset="1" stop-color="#F4BB79"/>
</linearGradient>
<linearGradient id="paint14_linear_637_921" x1="61.0195" y1="28.0193" x2="61.0195" y2="24.0193" gradientUnits="userSpaceOnUse">
<stop stop-color="#E9A254"/>
<stop offset="1" stop-color="#F4BB79"/>
</linearGradient>
<linearGradient id="paint15_linear_637_921" x1="61.0195" y1="17.0193" x2="61.0195" y2="13.0193" gradientUnits="userSpaceOnUse">
<stop stop-color="#E9A254"/>
<stop offset="1" stop-color="#F4BB79"/>
</linearGradient>
<linearGradient id="paint16_linear_637_921" x1="61.0195" y1="40.0193" x2="61.0195" y2="36.0193" gradientUnits="userSpaceOnUse">
<stop stop-color="#E9A254"/>
<stop offset="1" stop-color="#F4BB79"/>
</linearGradient>
<linearGradient id="paint17_linear_637_921" x1="61.0195" y1="51.0193" x2="61.0195" y2="47.0193" gradientUnits="userSpaceOnUse">
<stop stop-color="#E9A254"/>
<stop offset="1" stop-color="#F4BB79"/>
</linearGradient>
<linearGradient id="paint18_linear_637_921" x1="32.0194" y1="42.0193" x2="32.0194" y2="22.0193" gradientUnits="userSpaceOnUse">
<stop stop-color="#474F72"/>
<stop offset="1" stop-color="#878C9F"/>
</linearGradient>
</defs>
</svg>
